# xmcd
#
# Track frame offsets:
#	150
#	21602
#	35795
#	49870
#	73260
#	87480
#	108930
#	127945
#	146977
#
# Disc length: 2183 seconds
# Revision: 3
# Processed by: cddbd v1.5.2PL0 Copyright (c) Steve Scherf et al.
# Submitted via: dBpowerAMP V12.0
#
DISCID=8b088509
DTITLE=Mike Griffin and The Unknown Blues Band - Back on The Streets Again
DYEAR=1992
DGENRE=Blues
TTITLE0=Workin' is The Curse
TTITLE1=Blue Looks Good on You
TTITLE2=Drivin' Wheel
TTITLE3=I'd Rather go Blind
TTITLE4=Delta Moon
TTITLE5=Make up Your Mind
TTITLE6=I'm a Blues Man
TTITLE7=You Put The Hurt on me
TTITLE8=Back on The Streets Again
EXTD=
EXTT0=
EXTT1=
EXTT2=
EXTT3=
EXTT4=
EXTT5=
EXTT6=
EXTT7=
EXTT8=
PLAYORDER=
